HIERARCHY
ROOT hip
{
  OFFSET 0 0 0
  CHANNELS 6 Xposition Yposition Zposition Zrotation Yrotation Xrotation
  JOINT abdomen
  {
    OFFSET 0 20.6881 -0.73152
    CHANNELS 3 Zrotation Xrotation Yrotation
    JOINT chest
    {
      OFFSET 0 11.7043 -0.48768
      CHANNELS 3 Zrotation Xrotation Yrotation
      JOINT neck
      {
        OFFSET 0 22.1894 -2.19456
        CHANNELS 3 Zrotation Xrotation Yrotation
        JOINT head
        {
          OFFSET -0.24384 7.07133 1.2192
          CHANNELS 3 Zrotation Xrotation Yrotation
          JOINT leftEye
          {
            OFFSET 4.14528 8.04674 8.04672
            CHANNELS 3 Zrotation Xrotation Yrotation
            End Site
            {
              OFFSET 1 0 0
            }
          }
          JOINT rightEye
          {
            OFFSET -3.6576 8.04674 8.04672
            CHANNELS 3 Zrotation Xrotation Yrotation
            End Site
            {
              OFFSET 1 0 0
            }
          }
        }
      }
      JOINT rCollar
      {
        OFFSET -2.68224 19.2634 -4.8768
        CHANNELS 3 Zrotation Xrotation Yrotation
        JOINT rShldr
        {
          OFFSET -8.77824 -1.95073 1.46304
          CHANNELS 3 Zrotation Xrotation Yrotation
          JOINT rForeArm
          {
            OFFSET -28.1742 -1.7115 0.48768
            CHANNELS 3 Zrotation Xrotation Yrotation
            JOINT rHand
            {
              OFFSET -22.5879 0.773209 7.07136
              CHANNELS 3 Zrotation Xrotation Yrotation
              JOINT rThumb1
              {
                OFFSET -1.2192 -0.487915 3.41376
                CHANNELS 3 Zrotation Xrotation Yrotation
                JOINT rThumb2
                {
                  OFFSET -3.37035 -0.52449 3.41376
                  CHANNELS 3 Zrotation Xrotation Yrotation
                  End Site
                  {
                    OFFSET -1.78271 -1.18214 1.43049
                  }
                }
              }
              JOINT rIndex1
              {
                OFFSET -7.75947 0.938293 5.60832
                CHANNELS 3 Zrotation Xrotation Yrotation
                JOINT rIndex2
                {
                  OFFSET -2.54057 -0.884171 1.56538
                  CHANNELS 3 Zrotation Xrotation Yrotation
                  End Site
                  {
                    OFFSET -1.62519 -0.234802 1.16502
                  }
                }
              }
              JOINT rMid1
              {
                OFFSET -8.24714 1.18213 3.41376
                CHANNELS 3 Zrotation Xrotation Yrotation
                JOINT rMid2
                {
                  OFFSET -3.10165 -0.590103 1.0647
                  CHANNELS 3 Zrotation Xrotation Yrotation
                  End Site
                  {
                    OFFSET -2.48547 -0.328903 0.83742
                  }
                }
              }
              JOINT rRing1
              {
                OFFSET -8.82822 0.546677 1.51678
                CHANNELS 3 Zrotation Xrotation Yrotation
                JOINT rRing2
                {
                  OFFSET -2.60934 -0.819778 -0.0198488
                  CHANNELS 3 Zrotation Xrotation Yrotation
                  End Site
                  {
                    OFFSET -2.33842 -0.294052 0.168128
                  }
                }
              }
              JOINT rPinky1
              {
                OFFSET -8.27202 -0.0477905 -0.4584
                CHANNELS 3 Zrotation Xrotation Yrotation
                JOINT rPinky2
                {
                  OFFSET -1.82734 -0.647385 -0.700984
                  CHANNELS 3 Zrotation Xrotation Yrotation
                  End Site
                  {
                    OFFSET -1.69225 -0.51767 -0.607171
                  }
                }
              }
            }
          }
        }
      }
      JOINT lCollar
      {
        OFFSET 2.68224 19.2634 -4.8768
        CHANNELS 3 Zrotation Xrotation Yrotation
        JOINT lShldr
        {
          OFFSET 8.77824 -1.95073 1.46304
          CHANNELS 3 Zrotation Xrotation Yrotation
          JOINT lForeArm
          {
            OFFSET 28.1742 -1.7115 0.48768
            CHANNELS 3 Zrotation Xrotation Yrotation
            JOINT lHand
            {
              OFFSET 22.5879 0.773209 7.07136
              CHANNELS 3 Zrotation Xrotation Yrotation
              JOINT lThumb1
              {
                OFFSET 1.2192 -0.487915 3.41376
                CHANNELS 3 Zrotation Xrotation Yrotation
                JOINT lThumb2
                {
                  OFFSET 3.37035 -0.52449 3.41376
                  CHANNELS 3 Zrotation Xrotation Yrotation
                  End Site
                  {
                    OFFSET 1.78271 -1.18214 1.43049
                  }
                }
              }
              JOINT lIndex1
              {
                OFFSET 7.75947 0.938293 5.60832
                CHANNELS 3 Zrotation Xrotation Yrotation
                JOINT lIndex2
                {
                  OFFSET 2.54057 -0.884171 1.56538
                  CHANNELS 3 Zrotation Xrotation Yrotation
                  End Site
                  {
                    OFFSET 1.62519 -0.234802 1.16502
                  }
                }
              }
              JOINT lMid1
              {
                OFFSET 8.24714 1.18213 3.41376
                CHANNELS 3 Zrotation Xrotation Yrotation
                JOINT lMid2
                {
                  OFFSET 3.10165 -0.590103 1.0647
                  CHANNELS 3 Zrotation Xrotation Yrotation
                  End Site
                  {
                    OFFSET 2.48547 -0.328903 0.83742
                  }
                }
              }
              JOINT lRing1
              {
                OFFSET 8.82822 0.546677 1.51678
                CHANNELS 3 Zrotation Xrotation Yrotation
                JOINT lRing2
                {
                  OFFSET 2.60934 -0.819778 -0.0198488
                  CHANNELS 3 Zrotation Xrotation Yrotation
                  End Site
                  {
                    OFFSET 2.33842 -0.294052 0.168128
                  }
                }
              }
              JOINT lPinky1
              {
                OFFSET 8.27202 -0.0477905 -0.4584
                CHANNELS 3 Zrotation Xrotation Yrotation
                JOINT lPinky2
                {
                  OFFSET 1.82734 -0.647385 -0.700984
                  CHANNELS 3 Zrotation Xrotation Yrotation
                  End Site
                  {
                    OFFSET 1.69225 -0.51767 -0.607171
                  }
                }
              }
            }
          }
        }
      }
    }
  }
  JOINT rButtock
  {
    OFFSET -8.77824 4.35084 1.2192
    CHANNELS 3 Zrotation Xrotation Yrotation
    JOINT rThigh
    {
      OFFSET 0 -1.70687 -2.19456
      CHANNELS 3 Zrotation Xrotation Yrotation
      JOINT rShin
      {
        OFFSET 0 -36.8199 0.73152
        CHANNELS 3 Zrotation Xrotation Yrotation
        JOINT rFoot
        {
          OFFSET 0.73152 -45.1104 -5.12064
          CHANNELS 3 Zrotation Xrotation Yrotation
          End Site
          {
            OFFSET -1.1221 -3.69964 12.103
          }
        }
      }
    }
  }
  JOINT lButtock
  {
    OFFSET 8.77824 4.35084 1.2192
    CHANNELS 3 Zrotation Xrotation Yrotation
    JOINT lThigh
    {
      OFFSET 0 -1.70687 -2.19456
      CHANNELS 3 Zrotation Xrotation Yrotation
      JOINT lShin
      {
        OFFSET 0 -36.8199 0.73152
        CHANNELS 3 Zrotation Xrotation Yrotation
        JOINT lFoot
        {
          OFFSET -0.73152 -45.1104 -5.12064
          CHANNELS 3 Zrotation Xrotation Yrotation
          End Site
          {
            OFFSET 1.1221 -3.69964 12.103
          }
        }
      }
    }
  }
}
MOTION
Frames:	4
Frame Time:	0.03333
-1.4134773053228855 33.54431986808777 0.05117504624649882 -2.7492646928250837 2.4275890364571056 1.371449905146139 -0.06734209003918204 8.592966225918309 1.8967862211948536 2.202443589855271 -4.239337054607773 0.674153118015187 -2.9086437420127464 7.62914201043853 -0.8219198851184758 4.393779584572809 -13.600503194213879 -2.0153672698095604 0.3883957189450132 0.5941329695768448 -1.11413362722331 -0.5591203526743016 0.9298612065535955 0.4307569257034025 0.4803144838043407 0.986073343257683 0.7687708748137274 23.947232333880617 16.75232813766211 8.34122765122644 -12.410378589832298 -15.335401979248381 33.493984104746076 -2.201740934144406 -5.544686950287468 -2.3593738027820725 0.5618829507501603 0.3521307495055512 0.6396545795693931 -0.05484647239605528 0.7896795779670174 1.2561270702089398 -0.09845225434705464 0.04509037425991187 0.12372387423482248 3.9477725006392075 1.779708027640961 0.9569837810260103 0.6492584125118128 -0.09989663925331399 0.1948470209283487 1.6828420713884285 1.4862224829683293 -0.971783306853547 0.19079690551351627 -0.3246038064899304 0.02179868047070127 5.076202994455824 -0.6423567731597793 -0.8801982607681981 -0.1188272022290919 0.1950614515156901 1.1039154507815594 1.381378332156693 0.3603397030729809 -0.2969197424429729 0.4731699992108016 0.7819071428566602 0.23403517793044398 -30.214137510589712 16.523405809892672 -11.678703966504791 12.499655992473535 -14.654232335964887 -31.220787865939116 2.1402730735956994 -5.895061567443959 2.499087456688799 0.9241249148678425 0.12329502640035295 0.5004013231014077 0.23388128523070714 1.1641833324704594 0.36489538588852655 0.13090944668508744 -0.10122210949890637 -0.6029938593644669 -3.8000005041723353 2.8986902354013337 -0.09678670204577645 0.8274946001416756 0.6936672886390307 -0.9112075330434675 -1.2400704694090032 -1.0574687770432973 -1.1768136329062822 -0.2720138044800652 0.49727480400883445 0.28078470118928717 -4.910129932994725 -0.712290546463011 0.2928853417993168 0.7446202864039143 -0.963178228994683 -0.7109693851062896 -1.0889911672799641 0.653218588209098 -0.09418363957984789 -0.8068001941735947 0.6217423551101817 -0.31607492792899433 -15.605638413759936 -18.426774625900126 -14.564720999344578 -2.758468799618499 31.653999444236344 3.608842719210719 -1.7892297382307818 -5.473325560725997 -4.690210648325008 0.7050951556158142 -1.2874496774123836 0.09511921541358097 18.25594134947435 -18.44837509915029 16.233863845692078 2.3908404842883213 31.317318929478905 -2.6298883540588935 3.4416469454048 -4.317110711139415 6.654631110228621
-2.504376880824566 39.96433913707733 0.04637644160538912 -3.4653822796574176 3.0726101170017186 1.462979776109599 -0.5440707245292661 10.071072950048782 2.3214032870820906 2.454176615018438 -5.546719785339192 0.8297723081473162 -3.0782742648143633 9.363441446373365 -1.3780067800276454 5.3193000991871555 -16.105316270417852 -2.7767982525864627 0.3253038208385774 0.31802422656551893 -0.7962335713624678 -0.2951896768705498 0.7442540708705253 0.4216646632576462 0.39269703057482874 0.6505844830670001 0.5753609950558581 29.452506531336173 19.953391914836967 9.99901616185244 -14.920869260783846 -18.374837867451348 40.71164990637365 -2.6808996218751338 -6.897311146533759 -2.9056235177391314 0.4275740041893237 0.1803522122512445 0.466714776754052 -0.24095482657032802 0.7201603117690408 1.1098858898897968 -0.008722645157995522 -0.05089312688794017 0.09296030200668837 4.815051992200855 2.5815447020003663 0.865624984956918 0.6165986356957803 -0.26901825960091214 0.2468308436493753 1.79896275779805 1.3435302262532425 -0.8187667923211629 0.015335055347148003 -0.3261307539758249 0.06859752416535535 6.270488891589233 -0.3905825534181809 -0.7596316014565743 -0.055642229455001434 0.04077641610796124 0.8674550487676583 1.539132543373833 0.09863353450453766 -0.26283808566038774 0.3779285607636744 0.6692656907772198 0.1401532672932667 -36.48444241395818 19.963951387293807 -14.82973063159378 14.95541635760577 -17.662467920039237 -38.33673166025769 2.797469179779272 -7.637717312941481 2.892541144157618 0.6928022558528192 0.026302178039646407 0.28239102294385665 0.15457649238621798 0.9165427645588937 0.2601514467586191 0.22363209279321375 -0.13282919674932384 -0.409025184755126 -4.557207228390997 3.541413170733649 -0.16103537006139063 0.6474161290657605 0.6883815759950871 -0.8494538717666782 -1.6086297181787128 -0.6228610653910358 -0.8611247440675259 -0.3529999177578617 0.2938848972956658 -0.05507096150416656 -5.974442025977846 -0.3694705987762301 0.09663330293392884 0.8240479159317579 -0.8103138996147432 -0.5512856988094739 -1.566759484627771 0.29876485401422836 0.10963958393921984 -0.5870764770297224 0.6173866687712706 -0.2672394222089469 -19.206423644184156 -22.419337799568982 -17.578413904565767 -3.5278339008900175 38.55852156298634 4.189773786895575 -2.4353092846533353 -6.600211578016544 -5.984854222480708 0.6286280929280537 -0.9464958121120441 -0.023128167788000326 22.587421924853828 -21.966352823624568 19.56026330168396 2.903762291190303 38.38776000354685 -3.5436741767923348 3.912574828298839 -5.519966788133899 8.201531499679461
-3.3237196505069733 45.10700702667236 0.02854816848412156 -4.09469371166759 3.5566903829162637 1.6350031062765418 -0.9189193502249408 11.216056834205746 2.6932921463504753 2.5691794982817044 -6.581114369097189 0.9498519963154591 -3.347775600216495 10.767839330302 -1.8157007766894009 6.0465905948411605 -18.146398775565686 -3.3117318381926917 0.25848045165034605 0.14875842519341007 -0.5445473970281389 -0.14258174638875 0.5866549796527386 0.4050301110600504 0.3028039504129389 0.4166877498693812 0.43880070075070904 33.91104228565623 22.541246430969956 11.37723051559783 -16.980420597447395 -20.913434766837497 46.649167502811586 -3.107139284577072 -7.992163149730123 -3.436860050013679 0.29525168218160885 0.05524459771947298 0.32090629959099987 -0.2892717448415569 0.5872261008612281 0.9547137036223331 0.05518281919203874 -0.11248035566456334 0.07809487552583164 5.512165858328098 3.245331513846178 0.7533036979948219 0.5126658882515177 -0.30574568087195164 0.28393195097320856 1.9725088999847884 1.2187495003062796 -0.6228616523604176 -0.08855607063185986 -0.2939672330916762 0.09639506006598497 7.219722542341395 -0.158084781700798 -0.6212154700487387 -0.01387088690467941 -0.05305277400656002 0.6631114235307738 1.6793712680730042 -0.11866679950530239 -0.22081214514071085 0.29285199126626005 0.5479088105951373 0.10645938382863843 -41.54170913582696 22.69772264976036 -17.4609448961253 16.912301413307567 -20.108906784501695 -44.15935181447767 3.3211073400455917 -9.062158386989518 3.1900308872311696 0.5179876728320154 -0.024629422023227973 0.14215907507300257 0.10384790368816636 0.7106245139140568 0.18600608809970767 0.25438281839601445 -0.1351730722125489 -0.2687690110570596 -5.203103213479606 4.000571997357522 -0.19648557263806418 0.5358649459325834 0.6193742538197442 -0.7529794774526579 -1.9115573590486523 -0.2676186577904413 -0.6518192532028916 -0.36061146989675336 0.16855668899804405 -0.1740618214690743 -6.916433114888855 -0.06840925373614365 0.035781546792698515 0.7868170883745473 -0.6527447971962812 -0.4390036854351053 -1.8630508496671028 0.05296043305063262 0.19900583240051956 -0.40102842061921623 0.5563258981692673 -0.23427047261126563 -22.1708145364289 -25.583269253321067 -20.001807710768603 -4.1003034314102855 44.1433316057794 4.707831255723172 -2.9256876253128667 -7.4925228591126425 -7.028429007370025 0.5440058377321509 -0.6840695921946934 -0.0781547864234147 26.19362520283716 -24.783122837337828 22.273154675857786 3.4313617477318186 44.09519584760374 -4.276740451163232 4.249748397336988 -6.518488791484165 9.48506235605555
-3.91028318554163 49.272459745407104 0.00894591212272644 -4.633236198476524 3.9367609550366773 1.8160209418067452 -1.2296413041549228 12.122153144594224 3.0091350346106744 2.6046153734693767 -7.393287040661527 1.0261954752679248 -3.6441646156166168 11.902111770293091 -2.1571218696176513 6.63289061810047 -19.81262513113759 -3.674964499905143 0.20415352719846133 0.05050679431301132 -0.3606363360542004 -0.05606571452375545 0.4520149289997152 0.3881205903875086 0.2222711109000226 0.2581619407194413 0.3242823873925431 37.55066567924843 24.640450430860014 12.524232720654533 -18.675330332438765 -23.026859220579524 51.55304525139481 -3.489098830889817 -8.890540492582838 -3.909952889431201 0.18126937859073028 -0.017147936963257483 0.1923228658236323 -0.2747047122500651 0.44849647444265944 0.8049813895028144 0.0897887730347017 -0.15505004327519673 0.06696188062212241 6.071134025849955 3.808734608573489 0.6470942030402708 0.39494597708076123 -0.28366175829459633 0.3027506696013275 2.1514506781724254 1.1080039593300466 -0.4459640750861715 -0.1484003738705133 -0.24329984929189027 0.10496246516270816 7.992740300714988 0.038740192642077634 -0.4595658098488701 0.017885263888288292 -0.09507855444367824 0.49270295285486293 1.7883600630503689 -0.3080857677146215 -0.18787497193092598 0.2233746666986557 0.43915042778055485 0.09858564313906823 -45.64945320456433 24.88652336363536 -19.647124524906303 18.495503404423378 -22.101774984298412 -48.9327387989678 3.7541421871980467 -10.223099300594924 3.404019860154023 0.3845051791607505 -0.050770637050129505 0.060905170354973934 0.06847371364643565 0.5423674994658471 0.12692006926105787 0.2506309101075618 -0.12325804732929968 -0.17276589979577017 -5.7616060743642565 4.352753199549481 -0.22481829121276134 0.4623101051521871 0.5182098140625996 -0.6452356978949397 -2.166406444577226 0.01536205593871071 -0.5077612788189196 -0.32418823216761744 0.0914288588689378 -0.19781134970856068 -7.72415847952987 0.17022624336328904 0.015442737548281486 0.6894626135138003 -0.5046795294819216 -0.3442090907700851 -2.0528046038674583 -0.1305558643336203 0.2286949038144196 -0.2561550390422212 0.47727963865703366 -0.20311419118628224 -24.624221901392065 -28.131305474140174 -21.98338048522541 -4.529363962239439 48.699006310475376 5.1646863876060465 -3.319279624112379 -8.202829235621765 -7.891052444351839 0.45233600125155865 -0.47393455351101993 -0.0854247223820999 29.186019870678955 -27.070030680903592 24.506285024993456 3.918715168362681 48.743914804268215 -4.874338034196566 4.478628036424116 -7.34261215966191 10.537568040171482
